<mxfile host="app.diagrams.net" agent="Mozilla/5.0 (Windows NT 10.0; Win64; x64) AppleWebKit/537.36 (KHTML, like Gecko) Chrome/131.0.0.0 Safari/537.36 Edg/131.0.0.0" version="24.9.2">
  <diagram name="第 1 页" id="ZfpuJcAWG4KoZAY-R3oi">
    <mxGraphModel dx="1698" dy="1146" grid="1" gridSize="10" guides="1" tooltips="1" connect="1" arrows="1" fold="1" page="1" pageScale="1" pageWidth="827" pageHeight="1169" math="0" shadow="0">
      <root>
        <mxCell id="0" />
        <mxCell id="1" parent="0" />
        <mxCell id="s33GEvEaxMYmXVZrxAXG-2" value="面向BIM数据的时空语义表征研究" style="rounded=1;whiteSpace=wrap;html=1;" parent="1" vertex="1">
          <mxGeometry x="90" y="10" width="1270" height="60" as="geometry" />
        </mxCell>
        <mxCell id="s33GEvEaxMYmXVZrxAXG-4" value="" style="rounded=0;whiteSpace=wrap;html=1;" parent="1" vertex="1">
          <mxGeometry x="1080" y="210" width="270" height="510" as="geometry" />
        </mxCell>
        <mxCell id="s33GEvEaxMYmXVZrxAXG-15" value="Associative&#xa;Entity" style="shape=associativeEntity;whiteSpace=wrap;html=1;align=center;" parent="1" vertex="1">
          <mxGeometry x="1480" y="500" width="140" height="60" as="geometry" />
        </mxCell>
        <mxCell id="s33GEvEaxMYmXVZrxAXG-17" value="Table" style="shape=table;startSize=30;container=1;collapsible=1;childLayout=tableLayout;fixedRows=1;rowLines=0;fontStyle=1;align=center;resizeLast=1;html=1;" parent="1" vertex="1">
          <mxGeometry x="1460" y="250" width="180" height="130" as="geometry" />
        </mxCell>
        <mxCell id="s33GEvEaxMYmXVZrxAXG-18" value="" style="shape=tableRow;horizontal=0;startSize=0;swimlaneHead=0;swimlaneBody=0;fillColor=none;collapsible=0;dropTarget=0;points=[[0,0.5],[1,0.5]];portConstraint=eastwest;top=0;left=0;right=0;bottom=1;" parent="s33GEvEaxMYmXVZrxAXG-17" vertex="1">
          <mxGeometry y="30" width="180" height="30" as="geometry" />
        </mxCell>
        <mxCell id="s33GEvEaxMYmXVZrxAXG-19" value="PK" style="shape=partialRectangle;connectable=0;fillColor=none;top=0;left=0;bottom=0;right=0;fontStyle=1;overflow=hidden;whiteSpace=wrap;html=1;" parent="s33GEvEaxMYmXVZrxAXG-18" vertex="1">
          <mxGeometry width="30" height="30" as="geometry">
            <mxRectangle width="30" height="30" as="alternateBounds" />
          </mxGeometry>
        </mxCell>
        <mxCell id="s33GEvEaxMYmXVZrxAXG-20" value="UniqueID" style="shape=partialRectangle;connectable=0;fillColor=none;top=0;left=0;bottom=0;right=0;align=left;spacingLeft=6;fontStyle=5;overflow=hidden;whiteSpace=wrap;html=1;" parent="s33GEvEaxMYmXVZrxAXG-18" vertex="1">
          <mxGeometry x="30" width="150" height="30" as="geometry">
            <mxRectangle width="150" height="30" as="alternateBounds" />
          </mxGeometry>
        </mxCell>
        <mxCell id="s33GEvEaxMYmXVZrxAXG-21" value="" style="shape=tableRow;horizontal=0;startSize=0;swimlaneHead=0;swimlaneBody=0;fillColor=none;collapsible=0;dropTarget=0;points=[[0,0.5],[1,0.5]];portConstraint=eastwest;top=0;left=0;right=0;bottom=0;" parent="s33GEvEaxMYmXVZrxAXG-17" vertex="1">
          <mxGeometry y="60" width="180" height="20" as="geometry" />
        </mxCell>
        <mxCell id="s33GEvEaxMYmXVZrxAXG-22" value="" style="shape=partialRectangle;connectable=0;fillColor=none;top=0;left=0;bottom=0;right=0;editable=1;overflow=hidden;whiteSpace=wrap;html=1;" parent="s33GEvEaxMYmXVZrxAXG-21" vertex="1">
          <mxGeometry width="30" height="20" as="geometry">
            <mxRectangle width="30" height="20" as="alternateBounds" />
          </mxGeometry>
        </mxCell>
        <mxCell id="s33GEvEaxMYmXVZrxAXG-23" value="Row 1" style="shape=partialRectangle;connectable=0;fillColor=none;top=0;left=0;bottom=0;right=0;align=left;spacingLeft=6;overflow=hidden;whiteSpace=wrap;html=1;" parent="s33GEvEaxMYmXVZrxAXG-21" vertex="1">
          <mxGeometry x="30" width="150" height="20" as="geometry">
            <mxRectangle width="150" height="20" as="alternateBounds" />
          </mxGeometry>
        </mxCell>
        <mxCell id="s33GEvEaxMYmXVZrxAXG-24" value="" style="shape=tableRow;horizontal=0;startSize=0;swimlaneHead=0;swimlaneBody=0;fillColor=none;collapsible=0;dropTarget=0;points=[[0,0.5],[1,0.5]];portConstraint=eastwest;top=0;left=0;right=0;bottom=0;" parent="s33GEvEaxMYmXVZrxAXG-17" vertex="1">
          <mxGeometry y="80" width="180" height="30" as="geometry" />
        </mxCell>
        <mxCell id="s33GEvEaxMYmXVZrxAXG-25" value="" style="shape=partialRectangle;connectable=0;fillColor=none;top=0;left=0;bottom=0;right=0;editable=1;overflow=hidden;whiteSpace=wrap;html=1;" parent="s33GEvEaxMYmXVZrxAXG-24" vertex="1">
          <mxGeometry width="30" height="30" as="geometry">
            <mxRectangle width="30" height="30" as="alternateBounds" />
          </mxGeometry>
        </mxCell>
        <mxCell id="s33GEvEaxMYmXVZrxAXG-26" value="Row 2" style="shape=partialRectangle;connectable=0;fillColor=none;top=0;left=0;bottom=0;right=0;align=left;spacingLeft=6;overflow=hidden;whiteSpace=wrap;html=1;" parent="s33GEvEaxMYmXVZrxAXG-24" vertex="1">
          <mxGeometry x="30" width="150" height="30" as="geometry">
            <mxRectangle width="150" height="30" as="alternateBounds" />
          </mxGeometry>
        </mxCell>
        <mxCell id="s33GEvEaxMYmXVZrxAXG-27" value="" style="shape=tableRow;horizontal=0;startSize=0;swimlaneHead=0;swimlaneBody=0;fillColor=none;collapsible=0;dropTarget=0;points=[[0,0.5],[1,0.5]];portConstraint=eastwest;top=0;left=0;right=0;bottom=0;" parent="s33GEvEaxMYmXVZrxAXG-17" vertex="1">
          <mxGeometry y="110" width="180" height="20" as="geometry" />
        </mxCell>
        <mxCell id="s33GEvEaxMYmXVZrxAXG-28" value="" style="shape=partialRectangle;connectable=0;fillColor=none;top=0;left=0;bottom=0;right=0;editable=1;overflow=hidden;whiteSpace=wrap;html=1;" parent="s33GEvEaxMYmXVZrxAXG-27" vertex="1">
          <mxGeometry width="30" height="20" as="geometry">
            <mxRectangle width="30" height="20" as="alternateBounds" />
          </mxGeometry>
        </mxCell>
        <mxCell id="s33GEvEaxMYmXVZrxAXG-29" value="Row 3" style="shape=partialRectangle;connectable=0;fillColor=none;top=0;left=0;bottom=0;right=0;align=left;spacingLeft=6;overflow=hidden;whiteSpace=wrap;html=1;" parent="s33GEvEaxMYmXVZrxAXG-27" vertex="1">
          <mxGeometry x="30" width="150" height="20" as="geometry">
            <mxRectangle width="150" height="20" as="alternateBounds" />
          </mxGeometry>
        </mxCell>
        <mxCell id="s33GEvEaxMYmXVZrxAXG-81" value="BIM数据" style="image;points=[];html=1;align=center;shadow=0;dashed=0;image=img/lib/allied_telesis/buildings/Building_Cluster.svg;" parent="1" vertex="1">
          <mxGeometry x="120" y="80" width="120" height="100" as="geometry" />
        </mxCell>
        <mxCell id="s33GEvEaxMYmXVZrxAXG-82" value="数据表征" style="outlineConnect=0;dashed=0;verticalLabelPosition=bottom;verticalAlign=top;align=center;html=1;shape=mxgraph.aws3.athena;fillColor=#F58534;gradientColor=none;" parent="1" vertex="1">
          <mxGeometry x="665" y="80" width="120" height="100" as="geometry" />
        </mxCell>
        <mxCell id="s33GEvEaxMYmXVZrxAXG-83" value="建筑阶段" style="outlineConnect=0;dashed=0;verticalLabelPosition=bottom;verticalAlign=top;align=center;html=1;shape=mxgraph.aws3.aws_iot;fillColor=#5294CF;gradientColor=none;" parent="1" vertex="1">
          <mxGeometry x="1137" y="80" width="120" height="100" as="geometry" />
        </mxCell>
        <mxCell id="8xvinI1Koq5GKLLgfp_T-19" value="Cross-Functional Flowchart" style="shape=table;childLayout=tableLayout;startSize=40;collapsible=0;recursiveResize=0;expand=0;fontSize=16;" vertex="1" parent="1">
          <mxGeometry x="340" y="210" width="710" height="510" as="geometry" />
        </mxCell>
        <mxCell id="8xvinI1Koq5GKLLgfp_T-20" value="Actor 1" style="shape=tableRow;horizontal=0;swimlaneHead=0;swimlaneBody=0;top=0;left=0;strokeColor=inherit;bottom=0;right=0;dropTarget=0;fontStyle=0;fillColor=none;points=[[0,0.5],[1,0.5]];portConstraint=eastwest;startSize=40;collapsible=0;recursiveResize=0;expand=0;fontSize=16;" vertex="1" parent="8xvinI1Koq5GKLLgfp_T-19">
          <mxGeometry y="40" width="710" height="157" as="geometry" />
        </mxCell>
        <mxCell id="8xvinI1Koq5GKLLgfp_T-21" value="Phase 1" style="swimlane;swimlaneHead=0;swimlaneBody=0;fontStyle=0;strokeColor=inherit;connectable=0;fillColor=none;startSize=40;collapsible=0;recursiveResize=0;expand=0;fontSize=16;" vertex="1" parent="8xvinI1Koq5GKLLgfp_T-20">
          <mxGeometry x="40" width="223" height="157" as="geometry">
            <mxRectangle width="223" height="157" as="alternateBounds" />
          </mxGeometry>
        </mxCell>
        <mxCell id="s33GEvEaxMYmXVZrxAXG-30" value="List" style="swimlane;fontStyle=0;childLayout=stackLayout;horizontal=1;startSize=26;horizontalStack=0;resizeParent=1;resizeParentMax=0;resizeLast=0;collapsible=1;marginBottom=0;align=center;fontSize=14;" parent="8xvinI1Koq5GKLLgfp_T-21" vertex="1">
          <mxGeometry x="10" y="44" width="75" height="80" as="geometry">
            <mxRectangle x="5" y="54.5" width="60" height="30" as="alternateBounds" />
          </mxGeometry>
        </mxCell>
        <mxCell id="s33GEvEaxMYmXVZrxAXG-31" value="Item 1" style="text;strokeColor=none;fillColor=none;spacingLeft=4;spacingRight=4;overflow=hidden;rotatable=0;points=[[0,0.5],[1,0.5]];portConstraint=eastwest;fontSize=12;whiteSpace=wrap;html=1;" parent="s33GEvEaxMYmXVZrxAXG-30" vertex="1">
          <mxGeometry y="26" width="75" height="24" as="geometry" />
        </mxCell>
        <mxCell id="s33GEvEaxMYmXVZrxAXG-32" value="Item 2" style="text;strokeColor=none;fillColor=none;spacingLeft=4;spacingRight=4;overflow=hidden;rotatable=0;points=[[0,0.5],[1,0.5]];portConstraint=eastwest;fontSize=12;whiteSpace=wrap;html=1;" parent="s33GEvEaxMYmXVZrxAXG-30" vertex="1">
          <mxGeometry y="50" width="75" height="30" as="geometry" />
        </mxCell>
        <mxCell id="s33GEvEaxMYmXVZrxAXG-16" value="Relationship" style="shape=rhombus;double=1;perimeter=rhombusPerimeter;whiteSpace=wrap;html=1;align=center;" parent="8xvinI1Koq5GKLLgfp_T-21" vertex="1">
          <mxGeometry x="90" y="44" width="96" height="53" as="geometry" />
        </mxCell>
        <mxCell id="8xvinI1Koq5GKLLgfp_T-22" value="Phase 2" style="swimlane;swimlaneHead=0;swimlaneBody=0;fontStyle=0;strokeColor=inherit;connectable=0;fillColor=none;startSize=40;collapsible=0;recursiveResize=0;expand=0;fontSize=16;" vertex="1" parent="8xvinI1Koq5GKLLgfp_T-20">
          <mxGeometry x="263" width="224" height="157" as="geometry">
            <mxRectangle width="224" height="157" as="alternateBounds" />
          </mxGeometry>
        </mxCell>
        <mxCell id="s33GEvEaxMYmXVZrxAXG-85" value="Table" style="shape=table;startSize=30;container=1;collapsible=0;childLayout=tableLayout;strokeColor=default;fontSize=16;" parent="8xvinI1Koq5GKLLgfp_T-22" vertex="1">
          <mxGeometry x="8" y="44" width="112" height="76" as="geometry" />
        </mxCell>
        <mxCell id="s33GEvEaxMYmXVZrxAXG-86" value="" style="shape=tableRow;horizontal=0;startSize=0;swimlaneHead=0;swimlaneBody=0;strokeColor=inherit;top=0;left=0;bottom=0;right=0;collapsible=0;dropTarget=0;fillColor=none;points=[[0,0.5],[1,0.5]];portConstraint=eastwest;fontSize=16;" parent="s33GEvEaxMYmXVZrxAXG-85" vertex="1">
          <mxGeometry y="30" width="112" height="15" as="geometry" />
        </mxCell>
        <mxCell id="s33GEvEaxMYmXVZrxAXG-87" value="" style="shape=partialRectangle;html=1;whiteSpace=wrap;connectable=0;strokeColor=inherit;overflow=hidden;fillColor=none;top=0;left=0;bottom=0;right=0;pointerEvents=1;fontSize=16;" parent="s33GEvEaxMYmXVZrxAXG-86" vertex="1">
          <mxGeometry width="37" height="15" as="geometry">
            <mxRectangle width="37" height="15" as="alternateBounds" />
          </mxGeometry>
        </mxCell>
        <mxCell id="s33GEvEaxMYmXVZrxAXG-88" value="" style="shape=partialRectangle;html=1;whiteSpace=wrap;connectable=0;strokeColor=inherit;overflow=hidden;fillColor=none;top=0;left=0;bottom=0;right=0;pointerEvents=1;fontSize=16;" parent="s33GEvEaxMYmXVZrxAXG-86" vertex="1">
          <mxGeometry x="37" width="38" height="15" as="geometry">
            <mxRectangle width="38" height="15" as="alternateBounds" />
          </mxGeometry>
        </mxCell>
        <mxCell id="s33GEvEaxMYmXVZrxAXG-89" value="" style="shape=partialRectangle;html=1;whiteSpace=wrap;connectable=0;strokeColor=inherit;overflow=hidden;fillColor=none;top=0;left=0;bottom=0;right=0;pointerEvents=1;fontSize=16;" parent="s33GEvEaxMYmXVZrxAXG-86" vertex="1">
          <mxGeometry x="75" width="37" height="15" as="geometry">
            <mxRectangle width="37" height="15" as="alternateBounds" />
          </mxGeometry>
        </mxCell>
        <mxCell id="s33GEvEaxMYmXVZrxAXG-90" value="" style="shape=tableRow;horizontal=0;startSize=0;swimlaneHead=0;swimlaneBody=0;strokeColor=inherit;top=0;left=0;bottom=0;right=0;collapsible=0;dropTarget=0;fillColor=none;points=[[0,0.5],[1,0.5]];portConstraint=eastwest;fontSize=16;" parent="s33GEvEaxMYmXVZrxAXG-85" vertex="1">
          <mxGeometry y="45" width="112" height="16" as="geometry" />
        </mxCell>
        <mxCell id="s33GEvEaxMYmXVZrxAXG-91" value="" style="shape=partialRectangle;html=1;whiteSpace=wrap;connectable=0;strokeColor=inherit;overflow=hidden;fillColor=none;top=0;left=0;bottom=0;right=0;pointerEvents=1;fontSize=16;" parent="s33GEvEaxMYmXVZrxAXG-90" vertex="1">
          <mxGeometry width="37" height="16" as="geometry">
            <mxRectangle width="37" height="16" as="alternateBounds" />
          </mxGeometry>
        </mxCell>
        <mxCell id="s33GEvEaxMYmXVZrxAXG-92" value="" style="shape=partialRectangle;html=1;whiteSpace=wrap;connectable=0;strokeColor=inherit;overflow=hidden;fillColor=none;top=0;left=0;bottom=0;right=0;pointerEvents=1;fontSize=16;" parent="s33GEvEaxMYmXVZrxAXG-90" vertex="1">
          <mxGeometry x="37" width="38" height="16" as="geometry">
            <mxRectangle width="38" height="16" as="alternateBounds" />
          </mxGeometry>
        </mxCell>
        <mxCell id="s33GEvEaxMYmXVZrxAXG-93" value="" style="shape=partialRectangle;html=1;whiteSpace=wrap;connectable=0;strokeColor=inherit;overflow=hidden;fillColor=none;top=0;left=0;bottom=0;right=0;pointerEvents=1;fontSize=16;" parent="s33GEvEaxMYmXVZrxAXG-90" vertex="1">
          <mxGeometry x="75" width="37" height="16" as="geometry">
            <mxRectangle width="37" height="16" as="alternateBounds" />
          </mxGeometry>
        </mxCell>
        <mxCell id="s33GEvEaxMYmXVZrxAXG-94" value="" style="shape=tableRow;horizontal=0;startSize=0;swimlaneHead=0;swimlaneBody=0;strokeColor=inherit;top=0;left=0;bottom=0;right=0;collapsible=0;dropTarget=0;fillColor=none;points=[[0,0.5],[1,0.5]];portConstraint=eastwest;fontSize=16;" parent="s33GEvEaxMYmXVZrxAXG-85" vertex="1">
          <mxGeometry y="61" width="112" height="15" as="geometry" />
        </mxCell>
        <mxCell id="s33GEvEaxMYmXVZrxAXG-95" value="" style="shape=partialRectangle;html=1;whiteSpace=wrap;connectable=0;strokeColor=inherit;overflow=hidden;fillColor=none;top=0;left=0;bottom=0;right=0;pointerEvents=1;fontSize=16;" parent="s33GEvEaxMYmXVZrxAXG-94" vertex="1">
          <mxGeometry width="37" height="15" as="geometry">
            <mxRectangle width="37" height="15" as="alternateBounds" />
          </mxGeometry>
        </mxCell>
        <mxCell id="s33GEvEaxMYmXVZrxAXG-96" value="" style="shape=partialRectangle;html=1;whiteSpace=wrap;connectable=0;strokeColor=inherit;overflow=hidden;fillColor=none;top=0;left=0;bottom=0;right=0;pointerEvents=1;fontSize=16;" parent="s33GEvEaxMYmXVZrxAXG-94" vertex="1">
          <mxGeometry x="37" width="38" height="15" as="geometry">
            <mxRectangle width="38" height="15" as="alternateBounds" />
          </mxGeometry>
        </mxCell>
        <mxCell id="s33GEvEaxMYmXVZrxAXG-97" value="" style="shape=partialRectangle;html=1;whiteSpace=wrap;connectable=0;strokeColor=inherit;overflow=hidden;fillColor=none;top=0;left=0;bottom=0;right=0;pointerEvents=1;fontSize=16;" parent="s33GEvEaxMYmXVZrxAXG-94" vertex="1">
          <mxGeometry x="75" width="37" height="15" as="geometry">
            <mxRectangle width="37" height="15" as="alternateBounds" />
          </mxGeometry>
        </mxCell>
        <mxCell id="8xvinI1Koq5GKLLgfp_T-23" value="Phase 3" style="swimlane;swimlaneHead=0;swimlaneBody=0;fontStyle=0;strokeColor=inherit;connectable=0;fillColor=none;startSize=40;collapsible=0;recursiveResize=0;expand=0;fontSize=16;" vertex="1" parent="8xvinI1Koq5GKLLgfp_T-20">
          <mxGeometry x="487" width="223" height="157" as="geometry">
            <mxRectangle width="223" height="157" as="alternateBounds" />
          </mxGeometry>
        </mxCell>
        <mxCell id="s33GEvEaxMYmXVZrxAXG-34" value="" style="verticalLabelPosition=bottom;shadow=0;dashed=0;align=center;html=1;verticalAlign=top;strokeWidth=1;shape=mxgraph.mockup.graphics.plotChart;strokeColor=none;strokeColor2=#aaaaaa;strokeColor3=#666666;fillColor2=#99aaff,#0022ff,#008cff;" parent="8xvinI1Koq5GKLLgfp_T-23" vertex="1">
          <mxGeometry x="7.56" y="47" width="82.44" height="63" as="geometry" />
        </mxCell>
        <mxCell id="8xvinI1Koq5GKLLgfp_T-24" value="Actor 2" style="shape=tableRow;horizontal=0;swimlaneHead=0;swimlaneBody=0;top=0;left=0;strokeColor=inherit;bottom=0;right=0;dropTarget=0;fontStyle=0;fillColor=none;points=[[0,0.5],[1,0.5]];portConstraint=eastwest;startSize=40;collapsible=0;recursiveResize=0;expand=0;fontSize=16;" vertex="1" parent="8xvinI1Koq5GKLLgfp_T-19">
          <mxGeometry y="197" width="710" height="156" as="geometry" />
        </mxCell>
        <mxCell id="8xvinI1Koq5GKLLgfp_T-25" value="" style="swimlane;swimlaneHead=0;swimlaneBody=0;fontStyle=0;connectable=0;strokeColor=inherit;fillColor=none;startSize=0;collapsible=0;recursiveResize=0;expand=0;fontSize=16;" vertex="1" parent="8xvinI1Koq5GKLLgfp_T-24">
          <mxGeometry x="40" width="223" height="156" as="geometry">
            <mxRectangle width="223" height="156" as="alternateBounds" />
          </mxGeometry>
        </mxCell>
        <mxCell id="8xvinI1Koq5GKLLgfp_T-26" value="" style="swimlane;swimlaneHead=0;swimlaneBody=0;fontStyle=0;connectable=0;strokeColor=inherit;fillColor=none;startSize=0;collapsible=0;recursiveResize=0;expand=0;fontSize=16;" vertex="1" parent="8xvinI1Koq5GKLLgfp_T-24">
          <mxGeometry x="263" width="224" height="156" as="geometry">
            <mxRectangle width="224" height="156" as="alternateBounds" />
          </mxGeometry>
        </mxCell>
        <mxCell id="8xvinI1Koq5GKLLgfp_T-27" value="" style="swimlane;swimlaneHead=0;swimlaneBody=0;fontStyle=0;connectable=0;strokeColor=inherit;fillColor=none;startSize=0;collapsible=0;recursiveResize=0;expand=0;fontSize=16;" vertex="1" parent="8xvinI1Koq5GKLLgfp_T-24">
          <mxGeometry x="487" width="223" height="156" as="geometry">
            <mxRectangle width="223" height="156" as="alternateBounds" />
          </mxGeometry>
        </mxCell>
        <mxCell id="8xvinI1Koq5GKLLgfp_T-28" value="Actor 3" style="shape=tableRow;horizontal=0;swimlaneHead=0;swimlaneBody=0;top=0;left=0;strokeColor=inherit;bottom=0;right=0;dropTarget=0;fontStyle=0;fillColor=none;points=[[0,0.5],[1,0.5]];portConstraint=eastwest;startSize=40;collapsible=0;recursiveResize=0;expand=0;fontSize=16;" vertex="1" parent="8xvinI1Koq5GKLLgfp_T-19">
          <mxGeometry y="353" width="710" height="157" as="geometry" />
        </mxCell>
        <mxCell id="8xvinI1Koq5GKLLgfp_T-29" value="" style="swimlane;swimlaneHead=0;swimlaneBody=0;fontStyle=0;connectable=0;strokeColor=inherit;fillColor=none;startSize=0;collapsible=0;recursiveResize=0;expand=0;fontSize=16;" vertex="1" parent="8xvinI1Koq5GKLLgfp_T-28">
          <mxGeometry x="40" width="223" height="157" as="geometry">
            <mxRectangle width="223" height="157" as="alternateBounds" />
          </mxGeometry>
        </mxCell>
        <mxCell id="8xvinI1Koq5GKLLgfp_T-30" value="" style="swimlane;swimlaneHead=0;swimlaneBody=0;fontStyle=0;connectable=0;strokeColor=inherit;fillColor=none;startSize=0;collapsible=0;recursiveResize=0;expand=0;fontSize=16;" vertex="1" parent="8xvinI1Koq5GKLLgfp_T-28">
          <mxGeometry x="263" width="224" height="157" as="geometry">
            <mxRectangle width="224" height="157" as="alternateBounds" />
          </mxGeometry>
        </mxCell>
        <mxCell id="8xvinI1Koq5GKLLgfp_T-31" value="" style="swimlane;swimlaneHead=0;swimlaneBody=0;fontStyle=0;connectable=0;strokeColor=inherit;fillColor=none;startSize=0;collapsible=0;recursiveResize=0;expand=0;fontSize=16;" vertex="1" parent="8xvinI1Koq5GKLLgfp_T-28">
          <mxGeometry x="487" width="223" height="157" as="geometry">
            <mxRectangle width="223" height="157" as="alternateBounds" />
          </mxGeometry>
        </mxCell>
        <mxCell id="8xvinI1Koq5GKLLgfp_T-131" value="" style="group" vertex="1" connectable="0" parent="1">
          <mxGeometry x="90" y="750" width="1260" height="300" as="geometry" />
        </mxCell>
        <mxCell id="s33GEvEaxMYmXVZrxAXG-35" value="" style="strokeWidth=1;shadow=0;dashed=0;align=center;html=1;shape=mxgraph.mockup.graphics.rrect;rSize=0;strokeColor=default;container=0;" parent="8xvinI1Koq5GKLLgfp_T-131" vertex="1">
          <mxGeometry width="787.4920455348937" height="300" as="geometry" />
        </mxCell>
        <mxCell id="8xvinI1Koq5GKLLgfp_T-130" value="" style="group;strokeColor=default;" vertex="1" connectable="0" parent="8xvinI1Koq5GKLLgfp_T-131">
          <mxGeometry x="787.4920455348937" width="472.49522732093624" height="300" as="geometry" />
        </mxCell>
        <mxCell id="8xvinI1Koq5GKLLgfp_T-96" value="2022" style="strokeColor=default;fillColor=inherit;gradientColor=inherit;strokeWidth=1;shadow=0;dashed=0;align=center;html=1;shape=mxgraph.mockup.graphics.rrect;rSize=0;fontColor=#666666;" vertex="1" parent="8xvinI1Koq5GKLLgfp_T-130">
          <mxGeometry width="472.49522732093624" height="20" as="geometry" />
        </mxCell>
        <mxCell id="8xvinI1Koq5GKLLgfp_T-98" value="J" style="strokeColor=default;fillColor=inherit;gradientColor=inherit;strokeWidth=1;shadow=0;dashed=0;align=center;html=1;shape=mxgraph.mockup.graphics.rrect;rSize=0;;fontColor=#666666;" vertex="1" parent="8xvinI1Koq5GKLLgfp_T-130">
          <mxGeometry y="20" width="39.37460227674468" height="20" as="geometry" />
        </mxCell>
        <mxCell id="8xvinI1Koq5GKLLgfp_T-99" value="F" style="strokeColor=default;fillColor=inherit;gradientColor=inherit;strokeWidth=1;shadow=0;dashed=0;align=center;html=1;shape=mxgraph.mockup.graphics.rrect;rSize=0;fontColor=#666666;" vertex="1" parent="8xvinI1Koq5GKLLgfp_T-130">
          <mxGeometry x="39.37460227674468" y="20" width="39.37460227674468" height="20" as="geometry" />
        </mxCell>
        <mxCell id="8xvinI1Koq5GKLLgfp_T-100" value="M" style="strokeColor=default;fillColor=inherit;gradientColor=inherit;strokeWidth=1;shadow=0;dashed=0;align=center;html=1;shape=mxgraph.mockup.graphics.rrect;rSize=0;fontColor=#666666;" vertex="1" parent="8xvinI1Koq5GKLLgfp_T-130">
          <mxGeometry x="78.74920455348936" y="20" width="39.37460227674468" height="20" as="geometry" />
        </mxCell>
        <mxCell id="8xvinI1Koq5GKLLgfp_T-101" value="A" style="strokeColor=default;fillColor=inherit;gradientColor=inherit;strokeWidth=1;shadow=0;dashed=0;align=center;html=1;shape=mxgraph.mockup.graphics.rrect;rSize=0;fontColor=#666666;" vertex="1" parent="8xvinI1Koq5GKLLgfp_T-130">
          <mxGeometry x="118.12380683023406" y="20" width="39.37460227674468" height="20" as="geometry" />
        </mxCell>
        <mxCell id="8xvinI1Koq5GKLLgfp_T-102" value="M" style="strokeColor=default;fillColor=inherit;gradientColor=inherit;strokeWidth=1;shadow=0;dashed=0;align=center;html=1;shape=mxgraph.mockup.graphics.rrect;rSize=0;fontColor=#666666;" vertex="1" parent="8xvinI1Koq5GKLLgfp_T-130">
          <mxGeometry x="157.49840910697873" y="20" width="39.37460227674468" height="20" as="geometry" />
        </mxCell>
        <mxCell id="8xvinI1Koq5GKLLgfp_T-103" value="J" style="strokeColor=default;fillColor=inherit;gradientColor=inherit;strokeWidth=1;shadow=0;dashed=0;align=center;html=1;shape=mxgraph.mockup.graphics.rrect;rSize=0;fontColor=#666666;" vertex="1" parent="8xvinI1Koq5GKLLgfp_T-130">
          <mxGeometry x="196.87301138372342" y="20" width="39.37460227674468" height="20" as="geometry" />
        </mxCell>
        <mxCell id="8xvinI1Koq5GKLLgfp_T-104" value="J" style="strokeColor=default;fillColor=inherit;gradientColor=inherit;strokeWidth=1;shadow=0;dashed=0;align=center;html=1;shape=mxgraph.mockup.graphics.rrect;rSize=0;fontColor=#666666;" vertex="1" parent="8xvinI1Koq5GKLLgfp_T-130">
          <mxGeometry x="236.24761366046812" y="20" width="39.37460227674468" height="20" as="geometry" />
        </mxCell>
        <mxCell id="8xvinI1Koq5GKLLgfp_T-105" value="A" style="strokeColor=default;fillColor=inherit;gradientColor=inherit;strokeWidth=1;shadow=0;dashed=0;align=center;html=1;shape=mxgraph.mockup.graphics.rrect;rSize=0;fontColor=#666666;" vertex="1" parent="8xvinI1Koq5GKLLgfp_T-130">
          <mxGeometry x="275.6222159372128" y="20" width="39.37460227674468" height="20" as="geometry" />
        </mxCell>
        <mxCell id="8xvinI1Koq5GKLLgfp_T-106" value="S" style="strokeColor=default;fillColor=inherit;gradientColor=inherit;strokeWidth=1;shadow=0;dashed=0;align=center;html=1;shape=mxgraph.mockup.graphics.rrect;rSize=0;fontColor=#666666;" vertex="1" parent="8xvinI1Koq5GKLLgfp_T-130">
          <mxGeometry x="314.99681821395745" y="20" width="39.37460227674468" height="20" as="geometry" />
        </mxCell>
        <mxCell id="8xvinI1Koq5GKLLgfp_T-107" value="O" style="strokeColor=default;fillColor=inherit;gradientColor=inherit;strokeWidth=1;shadow=0;dashed=0;align=center;html=1;shape=mxgraph.mockup.graphics.rrect;rSize=0;fontColor=#666666;" vertex="1" parent="8xvinI1Koq5GKLLgfp_T-130">
          <mxGeometry x="354.3714204907022" y="20" width="39.37460227674468" height="20" as="geometry" />
        </mxCell>
        <mxCell id="8xvinI1Koq5GKLLgfp_T-108" value="N" style="strokeColor=default;fillColor=inherit;gradientColor=inherit;strokeWidth=1;shadow=0;dashed=0;align=center;html=1;shape=mxgraph.mockup.graphics.rrect;rSize=0;fontColor=#666666;" vertex="1" parent="8xvinI1Koq5GKLLgfp_T-130">
          <mxGeometry x="393.74602276744685" y="20" width="39.37460227674468" height="20" as="geometry" />
        </mxCell>
        <mxCell id="8xvinI1Koq5GKLLgfp_T-109" value="D" style="strokeColor=default;fillColor=inherit;gradientColor=inherit;strokeWidth=1;shadow=0;dashed=0;align=center;html=1;shape=mxgraph.mockup.graphics.rrect;rSize=0;fontColor=#666666;" vertex="1" parent="8xvinI1Koq5GKLLgfp_T-130">
          <mxGeometry x="433.1206250441915" y="20" width="39.37460227674468" height="20" as="geometry" />
        </mxCell>
        <mxCell id="8xvinI1Koq5GKLLgfp_T-110" value="" style="strokeColor=default;fillColor=inherit;gradientColor=inherit;strokeWidth=1;shadow=0;dashed=0;align=center;html=1;shape=mxgraph.mockup.graphics.rrect;rSize=0;fontColor=#666666;" vertex="1" parent="8xvinI1Koq5GKLLgfp_T-130">
          <mxGeometry y="40" width="39.37460227674468" height="260" as="geometry" />
        </mxCell>
        <mxCell id="8xvinI1Koq5GKLLgfp_T-111" value="" style="strokeColor=default;fillColor=inherit;gradientColor=inherit;strokeWidth=1;shadow=0;dashed=0;align=center;html=1;shape=mxgraph.mockup.graphics.rrect;rSize=0;fontColor=#666666;" vertex="1" parent="8xvinI1Koq5GKLLgfp_T-130">
          <mxGeometry x="78.74920455348936" y="40" width="39.37460227674468" height="260" as="geometry" />
        </mxCell>
        <mxCell id="8xvinI1Koq5GKLLgfp_T-112" value="" style="strokeColor=default;fillColor=inherit;gradientColor=inherit;strokeWidth=1;shadow=0;dashed=0;align=center;html=1;shape=mxgraph.mockup.graphics.rrect;rSize=0;fontColor=#666666;" vertex="1" parent="8xvinI1Koq5GKLLgfp_T-130">
          <mxGeometry x="157.49840910697873" y="40" width="39.37460227674468" height="260" as="geometry" />
        </mxCell>
        <mxCell id="8xvinI1Koq5GKLLgfp_T-113" value="" style="strokeColor=default;fillColor=inherit;gradientColor=inherit;strokeWidth=1;shadow=0;dashed=0;align=center;html=1;shape=mxgraph.mockup.graphics.rrect;rSize=0;fontColor=#666666;" vertex="1" parent="8xvinI1Koq5GKLLgfp_T-130">
          <mxGeometry x="236.24761366046812" y="40" width="39.37460227674468" height="260" as="geometry" />
        </mxCell>
        <mxCell id="8xvinI1Koq5GKLLgfp_T-114" value="" style="strokeColor=default;fillColor=inherit;gradientColor=inherit;strokeWidth=1;shadow=0;dashed=0;align=center;html=1;shape=mxgraph.mockup.graphics.rrect;rSize=0;fontColor=#666666;" vertex="1" parent="8xvinI1Koq5GKLLgfp_T-130">
          <mxGeometry x="314.99681821395745" y="40" width="39.37460227674468" height="260" as="geometry" />
        </mxCell>
        <mxCell id="8xvinI1Koq5GKLLgfp_T-115" value="" style="strokeColor=default;fillColor=inherit;gradientColor=inherit;strokeWidth=1;shadow=0;dashed=0;align=center;html=1;shape=mxgraph.mockup.graphics.rrect;rSize=0;fontColor=#666666;" vertex="1" parent="8xvinI1Koq5GKLLgfp_T-130">
          <mxGeometry x="393.74602276744685" y="40" width="39.37460227674468" height="260" as="geometry" />
        </mxCell>
        <mxCell id="s33GEvEaxMYmXVZrxAXG-36" value="#" style="strokeColor=default;fillColor=inherit;gradientColor=inherit;strokeWidth=1;shadow=0;dashed=0;align=center;html=1;shape=mxgraph.mockup.graphics.rrect;rSize=0;fontColor=#666666;" parent="8xvinI1Koq5GKLLgfp_T-131" vertex="1">
          <mxGeometry width="26.249734851163122" height="40" as="geometry" />
        </mxCell>
        <mxCell id="s33GEvEaxMYmXVZrxAXG-37" value="Mission" style="strokeColor=default;fillColor=inherit;gradientColor=inherit;strokeWidth=1;shadow=0;dashed=0;align=center;html=1;shape=mxgraph.mockup.graphics.rrect;rSize=0;fontColor=#666666;" parent="8xvinI1Koq5GKLLgfp_T-131" vertex="1">
          <mxGeometry x="26.249734851163122" width="65.62433712790781" height="40" as="geometry" />
        </mxCell>
        <mxCell id="s33GEvEaxMYmXVZrxAXG-38" value="Describe" style="strokeColor=default;fillColor=inherit;gradientColor=inherit;strokeWidth=1;shadow=0;dashed=0;align=center;html=1;shape=mxgraph.mockup.graphics.rrect;rSize=0;fontColor=#666666;" parent="8xvinI1Koq5GKLLgfp_T-131" vertex="1">
          <mxGeometry x="91.87407197907093" width="157.49840910697873" height="40" as="geometry" />
        </mxCell>
        <mxCell id="s33GEvEaxMYmXVZrxAXG-39" value="Stage" style="strokeColor=default;fillColor=inherit;gradientColor=inherit;strokeWidth=1;shadow=0;dashed=0;align=center;html=1;shape=mxgraph.mockup.graphics.rrect;rSize=0;fontColor=#666666;" parent="8xvinI1Koq5GKLLgfp_T-131" vertex="1">
          <mxGeometry x="249.37248108604967" width="65.62433712790781" height="40" as="geometry" />
        </mxCell>
        <mxCell id="s33GEvEaxMYmXVZrxAXG-40" value="2021" style="strokeColor=default;fillColor=inherit;gradientColor=inherit;strokeWidth=1;shadow=0;dashed=0;align=center;html=1;shape=mxgraph.mockup.graphics.rrect;rSize=0;fontColor=#666666;" parent="8xvinI1Koq5GKLLgfp_T-131" vertex="1">
          <mxGeometry x="314.99681821395745" width="472.49522732093624" height="20" as="geometry" />
        </mxCell>
        <mxCell id="s33GEvEaxMYmXVZrxAXG-42" value="J" style="strokeColor=default;fillColor=inherit;gradientColor=inherit;strokeWidth=1;shadow=0;dashed=0;align=center;html=1;shape=mxgraph.mockup.graphics.rrect;rSize=0;;fontColor=#666666;" parent="8xvinI1Koq5GKLLgfp_T-131" vertex="1">
          <mxGeometry x="314.99681821395745" y="20" width="39.37460227674468" height="20" as="geometry" />
        </mxCell>
        <mxCell id="s33GEvEaxMYmXVZrxAXG-43" value="F" style="strokeColor=default;fillColor=inherit;gradientColor=inherit;strokeWidth=1;shadow=0;dashed=0;align=center;html=1;shape=mxgraph.mockup.graphics.rrect;rSize=0;fontColor=#666666;" parent="8xvinI1Koq5GKLLgfp_T-131" vertex="1">
          <mxGeometry x="354.3714204907022" y="20" width="39.37460227674468" height="20" as="geometry" />
        </mxCell>
        <mxCell id="s33GEvEaxMYmXVZrxAXG-44" value="M" style="strokeColor=default;fillColor=inherit;gradientColor=inherit;strokeWidth=1;shadow=0;dashed=0;align=center;html=1;shape=mxgraph.mockup.graphics.rrect;rSize=0;fontColor=#666666;" parent="8xvinI1Koq5GKLLgfp_T-131" vertex="1">
          <mxGeometry x="393.74602276744685" y="20" width="39.37460227674468" height="20" as="geometry" />
        </mxCell>
        <mxCell id="s33GEvEaxMYmXVZrxAXG-45" value="A" style="strokeColor=default;fillColor=inherit;gradientColor=inherit;strokeWidth=1;shadow=0;dashed=0;align=center;html=1;shape=mxgraph.mockup.graphics.rrect;rSize=0;fontColor=#666666;" parent="8xvinI1Koq5GKLLgfp_T-131" vertex="1">
          <mxGeometry x="433.1206250441915" y="20" width="39.37460227674468" height="20" as="geometry" />
        </mxCell>
        <mxCell id="s33GEvEaxMYmXVZrxAXG-46" value="M" style="strokeColor=default;fillColor=inherit;gradientColor=inherit;strokeWidth=1;shadow=0;dashed=0;align=center;html=1;shape=mxgraph.mockup.graphics.rrect;rSize=0;fontColor=#666666;" parent="8xvinI1Koq5GKLLgfp_T-131" vertex="1">
          <mxGeometry x="472.49522732093624" y="20" width="39.37460227674468" height="20" as="geometry" />
        </mxCell>
        <mxCell id="s33GEvEaxMYmXVZrxAXG-47" value="J" style="strokeColor=default;fillColor=inherit;gradientColor=inherit;strokeWidth=1;shadow=0;dashed=0;align=center;html=1;shape=mxgraph.mockup.graphics.rrect;rSize=0;fontColor=#666666;" parent="8xvinI1Koq5GKLLgfp_T-131" vertex="1">
          <mxGeometry x="511.8698295976809" y="20" width="39.37460227674468" height="20" as="geometry" />
        </mxCell>
        <mxCell id="s33GEvEaxMYmXVZrxAXG-48" value="J" style="strokeColor=default;fillColor=inherit;gradientColor=inherit;strokeWidth=1;shadow=0;dashed=0;align=center;html=1;shape=mxgraph.mockup.graphics.rrect;rSize=0;fontColor=#666666;" parent="8xvinI1Koq5GKLLgfp_T-131" vertex="1">
          <mxGeometry x="551.2444318744256" y="20" width="39.37460227674468" height="20" as="geometry" />
        </mxCell>
        <mxCell id="s33GEvEaxMYmXVZrxAXG-49" value="A" style="strokeColor=default;fillColor=inherit;gradientColor=inherit;strokeWidth=1;shadow=0;dashed=0;align=center;html=1;shape=mxgraph.mockup.graphics.rrect;rSize=0;fontColor=#666666;" parent="8xvinI1Koq5GKLLgfp_T-131" vertex="1">
          <mxGeometry x="590.6190341511702" y="20" width="39.37460227674468" height="20" as="geometry" />
        </mxCell>
        <mxCell id="s33GEvEaxMYmXVZrxAXG-50" value="S" style="strokeColor=default;fillColor=inherit;gradientColor=inherit;strokeWidth=1;shadow=0;dashed=0;align=center;html=1;shape=mxgraph.mockup.graphics.rrect;rSize=0;fontColor=#666666;" parent="8xvinI1Koq5GKLLgfp_T-131" vertex="1">
          <mxGeometry x="629.9936364279149" y="20" width="39.37460227674468" height="20" as="geometry" />
        </mxCell>
        <mxCell id="s33GEvEaxMYmXVZrxAXG-51" value="O" style="strokeColor=default;fillColor=inherit;gradientColor=inherit;strokeWidth=1;shadow=0;dashed=0;align=center;html=1;shape=mxgraph.mockup.graphics.rrect;rSize=0;fontColor=#666666;" parent="8xvinI1Koq5GKLLgfp_T-131" vertex="1">
          <mxGeometry x="669.3682387046597" y="20" width="39.37460227674468" height="20" as="geometry" />
        </mxCell>
        <mxCell id="s33GEvEaxMYmXVZrxAXG-52" value="N" style="strokeColor=default;fillColor=inherit;gradientColor=inherit;strokeWidth=1;shadow=0;dashed=0;align=center;html=1;shape=mxgraph.mockup.graphics.rrect;rSize=0;fontColor=#666666;" parent="8xvinI1Koq5GKLLgfp_T-131" vertex="1">
          <mxGeometry x="708.7428409814044" y="20" width="39.37460227674468" height="20" as="geometry" />
        </mxCell>
        <mxCell id="s33GEvEaxMYmXVZrxAXG-53" value="D" style="strokeColor=default;fillColor=inherit;gradientColor=inherit;strokeWidth=1;shadow=0;dashed=0;align=center;html=1;shape=mxgraph.mockup.graphics.rrect;rSize=0;fontColor=#666666;" parent="8xvinI1Koq5GKLLgfp_T-131" vertex="1">
          <mxGeometry x="748.117443258149" y="20" width="39.37460227674468" height="20" as="geometry" />
        </mxCell>
        <mxCell id="s33GEvEaxMYmXVZrxAXG-54" value="" style="strokeColor=default;fillColor=inherit;gradientColor=inherit;strokeWidth=1;shadow=0;dashed=0;align=center;html=1;shape=mxgraph.mockup.graphics.rrect;rSize=0;fontColor=#666666;" parent="8xvinI1Koq5GKLLgfp_T-131" vertex="1">
          <mxGeometry y="40" width="314.99681821395745" height="260" as="geometry" />
        </mxCell>
        <mxCell id="s33GEvEaxMYmXVZrxAXG-55" value="" style="strokeColor=default;fillColor=inherit;gradientColor=inherit;strokeWidth=1;shadow=0;dashed=0;align=center;html=1;shape=mxgraph.mockup.graphics.rrect;rSize=0;fontColor=#666666;" parent="8xvinI1Koq5GKLLgfp_T-131" vertex="1">
          <mxGeometry x="314.99681821395745" y="40" width="39.37460227674468" height="260" as="geometry" />
        </mxCell>
        <mxCell id="s33GEvEaxMYmXVZrxAXG-56" value="" style="strokeColor=default;fillColor=inherit;gradientColor=inherit;strokeWidth=1;shadow=0;dashed=0;align=center;html=1;shape=mxgraph.mockup.graphics.rrect;rSize=0;fontColor=#666666;" parent="8xvinI1Koq5GKLLgfp_T-131" vertex="1">
          <mxGeometry x="393.74602276744685" y="40" width="39.37460227674468" height="260" as="geometry" />
        </mxCell>
        <mxCell id="s33GEvEaxMYmXVZrxAXG-57" value="" style="strokeColor=default;fillColor=inherit;gradientColor=inherit;strokeWidth=1;shadow=0;dashed=0;align=center;html=1;shape=mxgraph.mockup.graphics.rrect;rSize=0;fontColor=#666666;" parent="8xvinI1Koq5GKLLgfp_T-131" vertex="1">
          <mxGeometry x="472.49522732093624" y="40" width="39.37460227674468" height="260" as="geometry" />
        </mxCell>
        <mxCell id="s33GEvEaxMYmXVZrxAXG-58" value="" style="strokeColor=default;fillColor=inherit;gradientColor=inherit;strokeWidth=1;shadow=0;dashed=0;align=center;html=1;shape=mxgraph.mockup.graphics.rrect;rSize=0;fontColor=#666666;" parent="8xvinI1Koq5GKLLgfp_T-131" vertex="1">
          <mxGeometry x="551.2444318744256" y="40" width="39.37460227674468" height="260" as="geometry" />
        </mxCell>
        <mxCell id="s33GEvEaxMYmXVZrxAXG-59" value="" style="strokeColor=default;fillColor=inherit;gradientColor=inherit;strokeWidth=1;shadow=0;dashed=0;align=center;html=1;shape=mxgraph.mockup.graphics.rrect;rSize=0;fontColor=#666666;" parent="8xvinI1Koq5GKLLgfp_T-131" vertex="1">
          <mxGeometry x="629.9936364279149" y="40" width="39.37460227674468" height="260" as="geometry" />
        </mxCell>
        <mxCell id="s33GEvEaxMYmXVZrxAXG-60" value="" style="strokeColor=default;fillColor=inherit;gradientColor=inherit;strokeWidth=1;shadow=0;dashed=0;align=center;html=1;shape=mxgraph.mockup.graphics.rrect;rSize=0;fontColor=#666666;" parent="8xvinI1Koq5GKLLgfp_T-131" vertex="1">
          <mxGeometry x="708.7428409814044" y="40" width="39.37460227674468" height="260" as="geometry" />
        </mxCell>
        <mxCell id="s33GEvEaxMYmXVZrxAXG-61" value="1" style="strokeWidth=1;shadow=0;dashed=0;align=center;html=1;shape=mxgraph.mockup.graphics.anchor;fontColor=#666666;strokeColor=default;" parent="8xvinI1Koq5GKLLgfp_T-131" vertex="1">
          <mxGeometry y="40" width="26.249734851163122" height="20" as="geometry" />
        </mxCell>
        <mxCell id="s33GEvEaxMYmXVZrxAXG-62" value="需求分析" style="strokeWidth=1;shadow=0;dashed=0;align=center;html=1;shape=mxgraph.mockup.graphics.anchor;fontColor=#666666;strokeColor=default;" parent="8xvinI1Koq5GKLLgfp_T-131" vertex="1">
          <mxGeometry x="32.812168563953904" y="40" width="52.499469702326245" height="20" as="geometry" />
        </mxCell>
        <mxCell id="s33GEvEaxMYmXVZrxAXG-63" value="确定项目目标" style="strokeWidth=1;shadow=0;dashed=0;align=center;html=1;shape=mxgraph.mockup.graphics.anchor;fontColor=#666666;strokeColor=default;" parent="8xvinI1Koq5GKLLgfp_T-131" vertex="1">
          <mxGeometry x="85.31163826628016" y="40" width="170.6232765325603" height="20" as="geometry" />
        </mxCell>
        <mxCell id="s33GEvEaxMYmXVZrxAXG-64" value="Planning" style="strokeWidth=1;shadow=0;dashed=0;align=center;html=1;shape=mxgraph.mockup.graphics.anchor;fontColor=#666666;strokeColor=default;" parent="8xvinI1Koq5GKLLgfp_T-131" vertex="1">
          <mxGeometry x="249.37248108604967" y="40" width="65.62433712790781" height="20" as="geometry" />
        </mxCell>
        <mxCell id="s33GEvEaxMYmXVZrxAXG-65" value="2" style="strokeWidth=1;shadow=0;dashed=0;align=center;html=1;shape=mxgraph.mockup.graphics.anchor;fontColor=#666666;strokeColor=default;" parent="8xvinI1Koq5GKLLgfp_T-131" vertex="1">
          <mxGeometry y="60" width="26.249734851163122" height="20" as="geometry" />
        </mxCell>
        <mxCell id="s33GEvEaxMYmXVZrxAXG-66" value="概念设计" style="strokeWidth=1;shadow=0;dashed=0;align=center;html=1;shape=mxgraph.mockup.graphics.anchor;fontColor=#666666;strokeColor=default;" parent="8xvinI1Koq5GKLLgfp_T-131" vertex="1">
          <mxGeometry x="32.812168563953904" y="60" width="52.499469702326245" height="20" as="geometry" />
        </mxCell>
        <mxCell id="s33GEvEaxMYmXVZrxAXG-67" value="初步构思功能布局" style="strokeWidth=1;shadow=0;dashed=0;align=center;html=1;shape=mxgraph.mockup.graphics.anchor;fontColor=#666666;strokeColor=default;" parent="8xvinI1Koq5GKLLgfp_T-131" vertex="1">
          <mxGeometry x="85.31163826628016" y="60" width="170.6232765325603" height="20" as="geometry" />
        </mxCell>
        <mxCell id="s33GEvEaxMYmXVZrxAXG-68" value="Planning" style="strokeWidth=1;shadow=0;dashed=0;align=center;html=1;shape=mxgraph.mockup.graphics.anchor;fontColor=#666666;strokeColor=default;" parent="8xvinI1Koq5GKLLgfp_T-131" vertex="1">
          <mxGeometry x="249.37248108604967" y="60" width="65.62433712790781" height="20" as="geometry" />
        </mxCell>
        <mxCell id="s33GEvEaxMYmXVZrxAXG-69" value="3" style="strokeWidth=1;shadow=0;dashed=0;align=center;html=1;shape=mxgraph.mockup.graphics.anchor;fontColor=#666666;strokeColor=default;" parent="8xvinI1Koq5GKLLgfp_T-131" vertex="1">
          <mxGeometry y="80" width="26.249734851163122" height="20" as="geometry" />
        </mxCell>
        <mxCell id="s33GEvEaxMYmXVZrxAXG-70" value="设计审批" style="strokeWidth=1;shadow=0;dashed=0;align=center;html=1;shape=mxgraph.mockup.graphics.anchor;fontColor=#666666;strokeColor=default;" parent="8xvinI1Koq5GKLLgfp_T-131" vertex="1">
          <mxGeometry x="32.812168563953904" y="80" width="52.499469702326245" height="20" as="geometry" />
        </mxCell>
        <mxCell id="s33GEvEaxMYmXVZrxAXG-71" value="建筑设计上报审批" style="strokeWidth=1;shadow=0;dashed=0;align=center;html=1;shape=mxgraph.mockup.graphics.anchor;fontColor=#666666;strokeColor=default;" parent="8xvinI1Koq5GKLLgfp_T-131" vertex="1">
          <mxGeometry x="85.31163826628016" y="80" width="170.6232765325603" height="20" as="geometry" />
        </mxCell>
        <mxCell id="s33GEvEaxMYmXVZrxAXG-72" value="Planning" style="strokeWidth=1;shadow=0;dashed=0;align=center;html=1;shape=mxgraph.mockup.graphics.anchor;fontColor=#666666;strokeColor=default;" parent="8xvinI1Koq5GKLLgfp_T-131" vertex="1">
          <mxGeometry x="249.37248108604967" y="80" width="65.62433712790781" height="20" as="geometry" />
        </mxCell>
        <mxCell id="s33GEvEaxMYmXVZrxAXG-73" value="4" style="strokeWidth=1;shadow=0;dashed=0;align=center;html=1;shape=mxgraph.mockup.graphics.anchor;fontColor=#666666;strokeColor=default;" parent="8xvinI1Koq5GKLLgfp_T-131" vertex="1">
          <mxGeometry y="100" width="26.249734851163122" height="20" as="geometry" />
        </mxCell>
        <mxCell id="s33GEvEaxMYmXVZrxAXG-74" value="施工准备" style="strokeWidth=1;shadow=0;dashed=0;align=center;html=1;shape=mxgraph.mockup.graphics.anchor;fontColor=#666666;strokeColor=default;" parent="8xvinI1Koq5GKLLgfp_T-131" vertex="1">
          <mxGeometry x="32.812168563953904" y="100" width="52.499469702326245" height="20" as="geometry" />
        </mxCell>
        <mxCell id="s33GEvEaxMYmXVZrxAXG-75" value="准备施工现场和构件" style="strokeWidth=1;shadow=0;dashed=0;align=center;html=1;shape=mxgraph.mockup.graphics.anchor;fontColor=#666666;strokeColor=default;" parent="8xvinI1Koq5GKLLgfp_T-131" vertex="1">
          <mxGeometry x="85.31163826628016" y="100" width="170.6232765325603" height="20" as="geometry" />
        </mxCell>
        <mxCell id="s33GEvEaxMYmXVZrxAXG-76" value="Construct" style="strokeWidth=1;shadow=0;dashed=0;align=center;html=1;shape=mxgraph.mockup.graphics.anchor;fontColor=#666666;strokeColor=default;" parent="8xvinI1Koq5GKLLgfp_T-131" vertex="1">
          <mxGeometry x="249.37248108604967" y="100" width="65.62433712790781" height="20" as="geometry" />
        </mxCell>
        <mxCell id="s33GEvEaxMYmXVZrxAXG-77" value="" style="strokeWidth=1;shadow=0;dashed=0;align=center;html=1;shape=mxgraph.mockup.graphics.rrect;rSize=0;strokeColor=#d6b656;fillColor=#fff2cc;" parent="8xvinI1Koq5GKLLgfp_T-131" vertex="1">
          <mxGeometry x="328.11850385349646" y="45" width="91.8772537651135" height="10" as="geometry" />
        </mxCell>
        <mxCell id="s33GEvEaxMYmXVZrxAXG-78" value="" style="strokeWidth=1;shadow=0;dashed=0;align=center;html=1;shape=mxgraph.mockup.graphics.rrect;rSize=0;strokeColor=#B09500;fillColor=#e3c800;fontColor=#000000;" parent="8xvinI1Koq5GKLLgfp_T-131" vertex="1">
          <mxGeometry x="369.0871809375663" y="65" width="50.908576681043634" height="10" as="geometry" />
        </mxCell>
        <mxCell id="s33GEvEaxMYmXVZrxAXG-79" value="" style="strokeWidth=1;shadow=0;dashed=0;align=center;html=1;shape=mxgraph.mockup.graphics.rrect;rSize=0;strokeColor=#BD7000;fillColor=#f0a30a;fontColor=#000000;" parent="8xvinI1Koq5GKLLgfp_T-131" vertex="1">
          <mxGeometry x="419.99575761860996" y="85" width="114.54429753234817" height="10" as="geometry" />
        </mxCell>
        <mxCell id="s33GEvEaxMYmXVZrxAXG-80" value="" style="strokeWidth=1;shadow=0;dashed=0;align=center;html=1;shape=mxgraph.mockup.graphics.rrect;rSize=0;strokeColor=#10739e;fillColor=#b1ddf0;" parent="8xvinI1Koq5GKLLgfp_T-131" vertex="1">
          <mxGeometry x="534.5400551509582" y="105" width="190.90716255391362" height="10" as="geometry" />
        </mxCell>
        <mxCell id="8xvinI1Koq5GKLLgfp_T-82" value="" style="strokeWidth=1;shadow=0;dashed=0;align=center;html=1;shape=mxgraph.mockup.graphics.rrect;rSize=0;strokeColor=default;fillColor=#aaddff;" vertex="1" parent="8xvinI1Koq5GKLLgfp_T-131">
          <mxGeometry x="649.0843526833063" y="125" width="267.2700275754791" height="10" as="geometry" />
        </mxCell>
        <mxCell id="8xvinI1Koq5GKLLgfp_T-83" value="" style="strokeWidth=1;shadow=0;dashed=0;align=center;html=1;shape=mxgraph.mockup.graphics.rrect;rSize=0;strokeColor=#0e8088;fillColor=#b0e3e6;" vertex="1" parent="8xvinI1Koq5GKLLgfp_T-131">
          <mxGeometry x="814.5372268966981" y="145" width="305.4514600862618" height="10" as="geometry" />
        </mxCell>
        <mxCell id="8xvinI1Koq5GKLLgfp_T-84" value="" style="strokeWidth=1;shadow=0;dashed=0;align=center;html=1;shape=mxgraph.mockup.graphics.rrect;rSize=0;strokeColor=default;fillColor=#FF9999;" vertex="1" parent="8xvinI1Koq5GKLLgfp_T-131">
          <mxGeometry x="649.0843526833063" y="165" width="470.9043342996536" height="10" as="geometry" />
        </mxCell>
        <mxCell id="8xvinI1Koq5GKLLgfp_T-85" value="" style="strokeWidth=1;shadow=0;dashed=0;align=center;html=1;shape=mxgraph.mockup.graphics.rrect;rSize=0;strokeColor=default;fillColor=#FF6666;" vertex="1" parent="8xvinI1Koq5GKLLgfp_T-131">
          <mxGeometry x="534.5400551509582" y="185" width="585.461358976172" height="10" as="geometry" />
        </mxCell>
        <mxCell id="8xvinI1Koq5GKLLgfp_T-92" value="" style="strokeWidth=1;shadow=0;dashed=0;align=center;html=1;shape=mxgraph.mockup.graphics.rrect;rSize=0;strokeColor=default;fillColor=#FF3333;" vertex="1" parent="8xvinI1Koq5GKLLgfp_T-131">
          <mxGeometry x="649.0843526833063" y="205" width="509.0857668104363" height="10" as="geometry" />
        </mxCell>
        <mxCell id="8xvinI1Koq5GKLLgfp_T-93" value="" style="strokeWidth=1;shadow=0;dashed=0;align=center;html=1;shape=mxgraph.mockup.graphics.rrect;rSize=0;strokeColor=#82b366;fillColor=#d5e8d4;gradientColor=#97d077;" vertex="1" parent="8xvinI1Koq5GKLLgfp_T-131">
          <mxGeometry x="1119.98868698296" y="225" width="89.09000919182635" height="10" as="geometry" />
        </mxCell>
        <mxCell id="8xvinI1Koq5GKLLgfp_T-94" value="" style="strokeWidth=1;shadow=0;dashed=0;align=center;html=1;shape=mxgraph.mockup.graphics.rrect;rSize=0;strokeColor=default;fillColor=#33FF99;" vertex="1" parent="8xvinI1Koq5GKLLgfp_T-131">
          <mxGeometry x="1158.1701194937427" y="245" width="76.36286502156545" height="10" as="geometry" />
        </mxCell>
        <mxCell id="8xvinI1Koq5GKLLgfp_T-95" value="" style="strokeWidth=1;shadow=0;dashed=0;align=center;html=1;shape=mxgraph.mockup.graphics.rrect;rSize=0;strokeColor=default;fillColor=#00FF80;" vertex="1" parent="8xvinI1Koq5GKLLgfp_T-131">
          <mxGeometry x="1183.6244078342645" y="265" width="76.37559216573571" height="10" as="geometry" />
        </mxCell>
        <mxCell id="8xvinI1Koq5GKLLgfp_T-66" value="9" style="strokeWidth=1;shadow=0;dashed=0;align=center;html=1;shape=mxgraph.mockup.graphics.anchor;fontColor=#666666;strokeColor=default;" vertex="1" parent="8xvinI1Koq5GKLLgfp_T-131">
          <mxGeometry y="200" width="26.249734851163122" height="20" as="geometry" />
        </mxCell>
        <mxCell id="8xvinI1Koq5GKLLgfp_T-67" value="安全监管" style="strokeWidth=1;shadow=0;dashed=0;align=center;html=1;shape=mxgraph.mockup.graphics.anchor;fontColor=#666666;strokeColor=default;" vertex="1" parent="8xvinI1Koq5GKLLgfp_T-131">
          <mxGeometry x="32.812168563953904" y="200" width="52.499469702326245" height="20" as="geometry" />
        </mxCell>
        <mxCell id="8xvinI1Koq5GKLLgfp_T-68" value="建筑安全管理" style="strokeWidth=1;shadow=0;dashed=0;align=center;html=1;shape=mxgraph.mockup.graphics.anchor;fontColor=#666666;strokeColor=default;" vertex="1" parent="8xvinI1Koq5GKLLgfp_T-131">
          <mxGeometry x="85.31163826628016" y="200" width="170.6232765325603" height="20" as="geometry" />
        </mxCell>
        <mxCell id="8xvinI1Koq5GKLLgfp_T-69" value="Monitor" style="strokeWidth=1;shadow=0;dashed=0;align=center;html=1;shape=mxgraph.mockup.graphics.anchor;fontColor=#666666;strokeColor=default;" vertex="1" parent="8xvinI1Koq5GKLLgfp_T-131">
          <mxGeometry x="249.37248108604967" y="200" width="65.62433712790781" height="20" as="geometry" />
        </mxCell>
        <mxCell id="8xvinI1Koq5GKLLgfp_T-70" value="10" style="strokeWidth=1;shadow=0;dashed=0;align=center;html=1;shape=mxgraph.mockup.graphics.anchor;fontColor=#666666;strokeColor=default;" vertex="1" parent="8xvinI1Koq5GKLLgfp_T-131">
          <mxGeometry y="220" width="26.249734851163122" height="20" as="geometry" />
        </mxCell>
        <mxCell id="8xvinI1Koq5GKLLgfp_T-71" value="设备调试" style="strokeWidth=1;shadow=0;dashed=0;align=center;html=1;shape=mxgraph.mockup.graphics.anchor;fontColor=#666666;strokeColor=default;" vertex="1" parent="8xvinI1Koq5GKLLgfp_T-131">
          <mxGeometry x="32.812168563953904" y="220" width="52.499469702326245" height="20" as="geometry" />
        </mxCell>
        <mxCell id="8xvinI1Koq5GKLLgfp_T-72" value="建筑系统测试" style="strokeWidth=1;shadow=0;dashed=0;align=center;html=1;shape=mxgraph.mockup.graphics.anchor;fontColor=#666666;strokeColor=default;" vertex="1" parent="8xvinI1Koq5GKLLgfp_T-131">
          <mxGeometry x="85.31163826628016" y="220" width="170.6232765325603" height="20" as="geometry" />
        </mxCell>
        <mxCell id="8xvinI1Koq5GKLLgfp_T-73" value="Operate" style="strokeWidth=1;shadow=0;dashed=0;align=center;html=1;shape=mxgraph.mockup.graphics.anchor;fontColor=#666666;strokeColor=default;" vertex="1" parent="8xvinI1Koq5GKLLgfp_T-131">
          <mxGeometry x="249.37248108604967" y="220" width="65.62433712790781" height="20" as="geometry" />
        </mxCell>
        <mxCell id="8xvinI1Koq5GKLLgfp_T-74" value="11" style="strokeWidth=1;shadow=0;dashed=0;align=center;html=1;shape=mxgraph.mockup.graphics.anchor;fontColor=#666666;strokeColor=default;" vertex="1" parent="8xvinI1Koq5GKLLgfp_T-131">
          <mxGeometry y="240" width="26.249734851163122" height="20" as="geometry" />
        </mxCell>
        <mxCell id="8xvinI1Koq5GKLLgfp_T-75" value="日常维护" style="strokeWidth=1;shadow=0;dashed=0;align=center;html=1;shape=mxgraph.mockup.graphics.anchor;fontColor=#666666;strokeColor=default;" vertex="1" parent="8xvinI1Koq5GKLLgfp_T-131">
          <mxGeometry x="32.812168563953904" y="240" width="52.499469702326245" height="20" as="geometry" />
        </mxCell>
        <mxCell id="8xvinI1Koq5GKLLgfp_T-76" value="建筑常规保养" style="strokeWidth=1;shadow=0;dashed=0;align=center;html=1;shape=mxgraph.mockup.graphics.anchor;fontColor=#666666;strokeColor=default;" vertex="1" parent="8xvinI1Koq5GKLLgfp_T-131">
          <mxGeometry x="85.31163826628016" y="240" width="170.6232765325603" height="20" as="geometry" />
        </mxCell>
        <mxCell id="8xvinI1Koq5GKLLgfp_T-77" value="Operate" style="strokeWidth=1;shadow=0;dashed=0;align=center;html=1;shape=mxgraph.mockup.graphics.anchor;fontColor=#666666;strokeColor=default;" vertex="1" parent="8xvinI1Koq5GKLLgfp_T-131">
          <mxGeometry x="249.37248108604967" y="240" width="65.62433712790781" height="20" as="geometry" />
        </mxCell>
        <mxCell id="8xvinI1Koq5GKLLgfp_T-78" value="12" style="strokeWidth=1;shadow=0;dashed=0;align=center;html=1;shape=mxgraph.mockup.graphics.anchor;fontColor=#666666;strokeColor=default;" vertex="1" parent="8xvinI1Koq5GKLLgfp_T-131">
          <mxGeometry y="260" width="26.249734851163122" height="20" as="geometry" />
        </mxCell>
        <mxCell id="8xvinI1Koq5GKLLgfp_T-79" value="性能评估" style="strokeWidth=1;shadow=0;dashed=0;align=center;html=1;shape=mxgraph.mockup.graphics.anchor;fontColor=#666666;strokeColor=default;" vertex="1" parent="8xvinI1Koq5GKLLgfp_T-131">
          <mxGeometry x="32.812168563953904" y="260" width="52.499469702326245" height="20" as="geometry" />
        </mxCell>
        <mxCell id="8xvinI1Koq5GKLLgfp_T-80" value="建筑质量评测" style="strokeWidth=1;shadow=0;dashed=0;align=center;html=1;shape=mxgraph.mockup.graphics.anchor;fontColor=#666666;strokeColor=default;" vertex="1" parent="8xvinI1Koq5GKLLgfp_T-131">
          <mxGeometry x="85.31163826628016" y="260" width="170.6232765325603" height="20" as="geometry" />
        </mxCell>
        <mxCell id="8xvinI1Koq5GKLLgfp_T-81" value="Operate" style="strokeWidth=1;shadow=0;dashed=0;align=center;html=1;shape=mxgraph.mockup.graphics.anchor;fontColor=#666666;strokeColor=default;" vertex="1" parent="8xvinI1Koq5GKLLgfp_T-131">
          <mxGeometry x="249.37248108604967" y="260" width="65.62433712790781" height="20" as="geometry" />
        </mxCell>
        <mxCell id="8xvinI1Koq5GKLLgfp_T-48" value="5" style="strokeWidth=1;shadow=0;dashed=0;align=center;html=1;shape=mxgraph.mockup.graphics.anchor;fontColor=#666666;strokeColor=default;" vertex="1" parent="8xvinI1Koq5GKLLgfp_T-131">
          <mxGeometry y="120" width="26.249734851163122" height="20" as="geometry" />
        </mxCell>
        <mxCell id="8xvinI1Koq5GKLLgfp_T-49" value="基础工程" style="strokeWidth=1;shadow=0;dashed=0;align=center;html=1;shape=mxgraph.mockup.graphics.anchor;fontColor=#666666;strokeColor=default;" vertex="1" parent="8xvinI1Koq5GKLLgfp_T-131">
          <mxGeometry x="32.812168563953904" y="120" width="52.499469702326245" height="20" as="geometry" />
        </mxCell>
        <mxCell id="8xvinI1Koq5GKLLgfp_T-50" value="基础结构工作" style="strokeWidth=1;shadow=0;dashed=0;align=center;html=1;shape=mxgraph.mockup.graphics.anchor;fontColor=#666666;strokeColor=default;" vertex="1" parent="8xvinI1Koq5GKLLgfp_T-131">
          <mxGeometry x="85.31163826628016" y="120" width="170.6232765325603" height="20" as="geometry" />
        </mxCell>
        <mxCell id="8xvinI1Koq5GKLLgfp_T-51" value="Construct" style="strokeWidth=1;shadow=0;dashed=0;align=center;html=1;shape=mxgraph.mockup.graphics.anchor;fontColor=#666666;strokeColor=default;" vertex="1" parent="8xvinI1Koq5GKLLgfp_T-131">
          <mxGeometry x="249.37248108604967" y="120" width="65.62433712790781" height="20" as="geometry" />
        </mxCell>
        <mxCell id="8xvinI1Koq5GKLLgfp_T-52" value="6" style="strokeWidth=1;shadow=0;dashed=0;align=center;html=1;shape=mxgraph.mockup.graphics.anchor;fontColor=#666666;strokeColor=default;" vertex="1" parent="8xvinI1Koq5GKLLgfp_T-131">
          <mxGeometry y="140" width="26.249734851163122" height="20" as="geometry" />
        </mxCell>
        <mxCell id="8xvinI1Koq5GKLLgfp_T-53" value="结构建设" style="strokeWidth=1;shadow=0;dashed=0;align=center;html=1;shape=mxgraph.mockup.graphics.anchor;fontColor=#666666;strokeColor=default;" vertex="1" parent="8xvinI1Koq5GKLLgfp_T-131">
          <mxGeometry x="32.812168563953904" y="140" width="52.499469702326245" height="20" as="geometry" />
        </mxCell>
        <mxCell id="8xvinI1Koq5GKLLgfp_T-54" value="主体结构建设" style="strokeWidth=1;shadow=0;dashed=0;align=center;html=1;shape=mxgraph.mockup.graphics.anchor;fontColor=#666666;strokeColor=default;" vertex="1" parent="8xvinI1Koq5GKLLgfp_T-131">
          <mxGeometry x="85.31163826628016" y="140" width="170.6232765325603" height="20" as="geometry" />
        </mxCell>
        <mxCell id="8xvinI1Koq5GKLLgfp_T-55" value="Construct" style="strokeWidth=1;shadow=0;dashed=0;align=center;html=1;shape=mxgraph.mockup.graphics.anchor;fontColor=#666666;strokeColor=default;" vertex="1" parent="8xvinI1Koq5GKLLgfp_T-131">
          <mxGeometry x="249.37248108604967" y="140" width="65.62433712790781" height="20" as="geometry" />
        </mxCell>
        <mxCell id="8xvinI1Koq5GKLLgfp_T-56" value="7" style="strokeWidth=1;shadow=0;dashed=0;align=center;html=1;shape=mxgraph.mockup.graphics.anchor;fontColor=#666666;strokeColor=default;" vertex="1" parent="8xvinI1Koq5GKLLgfp_T-131">
          <mxGeometry y="160" width="26.249734851163122" height="20" as="geometry" />
        </mxCell>
        <mxCell id="8xvinI1Koq5GKLLgfp_T-57" value="质量控制" style="strokeWidth=1;shadow=0;dashed=0;align=center;html=1;shape=mxgraph.mockup.graphics.anchor;fontColor=#666666;strokeColor=default;" vertex="1" parent="8xvinI1Koq5GKLLgfp_T-131">
          <mxGeometry x="32.812168563953904" y="160" width="52.499469702326245" height="20" as="geometry" />
        </mxCell>
        <mxCell id="8xvinI1Koq5GKLLgfp_T-58" value="检查施工质量" style="strokeWidth=1;shadow=0;dashed=0;align=center;html=1;shape=mxgraph.mockup.graphics.anchor;fontColor=#666666;strokeColor=default;" vertex="1" parent="8xvinI1Koq5GKLLgfp_T-131">
          <mxGeometry x="85.31163826628016" y="160" width="170.6232765325603" height="20" as="geometry" />
        </mxCell>
        <mxCell id="8xvinI1Koq5GKLLgfp_T-59" value="Monitor" style="strokeWidth=1;shadow=0;dashed=0;align=center;html=1;shape=mxgraph.mockup.graphics.anchor;fontColor=#666666;strokeColor=default;" vertex="1" parent="8xvinI1Koq5GKLLgfp_T-131">
          <mxGeometry x="249.37248108604967" y="160" width="65.62433712790781" height="20" as="geometry" />
        </mxCell>
        <mxCell id="8xvinI1Koq5GKLLgfp_T-60" value="8" style="strokeWidth=1;shadow=0;dashed=0;align=center;html=1;shape=mxgraph.mockup.graphics.anchor;fontColor=#666666;strokeColor=default;" vertex="1" parent="8xvinI1Koq5GKLLgfp_T-131">
          <mxGeometry y="180" width="26.249734851163122" height="20" as="geometry" />
        </mxCell>
        <mxCell id="8xvinI1Koq5GKLLgfp_T-61" value="进度管理" style="strokeWidth=1;shadow=0;dashed=0;align=center;html=1;shape=mxgraph.mockup.graphics.anchor;fontColor=#666666;strokeColor=default;" vertex="1" parent="8xvinI1Koq5GKLLgfp_T-131">
          <mxGeometry x="32.812168563953904" y="180" width="52.499469702326245" height="20" as="geometry" />
        </mxCell>
        <mxCell id="8xvinI1Koq5GKLLgfp_T-62" value="监控施工进度" style="strokeWidth=1;shadow=0;dashed=0;align=center;html=1;shape=mxgraph.mockup.graphics.anchor;fontColor=#666666;strokeColor=default;" vertex="1" parent="8xvinI1Koq5GKLLgfp_T-131">
          <mxGeometry x="85.31163826628016" y="180" width="170.6232765325603" height="20" as="geometry" />
        </mxCell>
        <mxCell id="8xvinI1Koq5GKLLgfp_T-63" value="Monitor" style="strokeWidth=1;shadow=0;dashed=0;align=center;html=1;shape=mxgraph.mockup.graphics.anchor;fontColor=#666666;strokeColor=default;" vertex="1" parent="8xvinI1Koq5GKLLgfp_T-131">
          <mxGeometry x="249.37248108604967" y="180" width="65.62433712790781" height="20" as="geometry" />
        </mxCell>
        <mxCell id="8xvinI1Koq5GKLLgfp_T-133" value="" style="group" vertex="1" connectable="0" parent="1">
          <mxGeometry x="90" y="210" width="235" height="510" as="geometry" />
        </mxCell>
        <mxCell id="s33GEvEaxMYmXVZrxAXG-1" value="" style="rounded=0;whiteSpace=wrap;html=1;container=0;" parent="8xvinI1Koq5GKLLgfp_T-133" vertex="1">
          <mxGeometry width="234.99999999999997" height="510" as="geometry" />
        </mxCell>
        <mxCell id="8xvinI1Koq5GKLLgfp_T-1" style="edgeStyle=orthogonalEdgeStyle;rounded=0;orthogonalLoop=1;jettySize=auto;html=1;entryX=0.5;entryY=0;entryDx=0;entryDy=0;" edge="1" parent="8xvinI1Koq5GKLLgfp_T-133" source="s33GEvEaxMYmXVZrxAXG-5" target="s33GEvEaxMYmXVZrxAXG-6">
          <mxGeometry relative="1" as="geometry" />
        </mxCell>
        <mxCell id="8xvinI1Koq5GKLLgfp_T-16" value="添加三维空间信息" style="edgeLabel;html=1;align=left;verticalAlign=middle;resizable=0;points=[];labelPosition=right;verticalLabelPosition=middle;" vertex="1" connectable="0" parent="8xvinI1Koq5GKLLgfp_T-1">
          <mxGeometry x="-0.2825" relative="1" as="geometry">
            <mxPoint x="-95" y="3" as="offset" />
          </mxGeometry>
        </mxCell>
        <mxCell id="s33GEvEaxMYmXVZrxAXG-5" value="2D BIM" style="rounded=1;whiteSpace=wrap;html=1;container=0;" parent="8xvinI1Koq5GKLLgfp_T-133" vertex="1">
          <mxGeometry x="29.374999999999996" y="12.439024390243917" width="176.25" height="44.1019955654102" as="geometry" />
        </mxCell>
        <mxCell id="8xvinI1Koq5GKLLgfp_T-3" style="edgeStyle=orthogonalEdgeStyle;rounded=0;orthogonalLoop=1;jettySize=auto;html=1;entryX=0.5;entryY=0;entryDx=0;entryDy=0;" edge="1" parent="8xvinI1Koq5GKLLgfp_T-133" source="s33GEvEaxMYmXVZrxAXG-6" target="s33GEvEaxMYmXVZrxAXG-7">
          <mxGeometry relative="1" as="geometry" />
        </mxCell>
        <mxCell id="8xvinI1Koq5GKLLgfp_T-17" value="集成资源调度信息" style="edgeLabel;html=1;align=left;verticalAlign=middle;resizable=0;points=[];labelPosition=right;verticalLabelPosition=middle;" vertex="1" connectable="0" parent="8xvinI1Koq5GKLLgfp_T-3">
          <mxGeometry x="-0.2542" relative="1" as="geometry">
            <mxPoint x="-95" y="1" as="offset" />
          </mxGeometry>
        </mxCell>
        <mxCell id="s33GEvEaxMYmXVZrxAXG-6" value="3D BIM" style="rounded=1;whiteSpace=wrap;html=1;container=0;" parent="8xvinI1Koq5GKLLgfp_T-133" vertex="1">
          <mxGeometry x="29.374999999999996" y="85.94235033259429" width="176.25" height="44.1019955654102" as="geometry" />
        </mxCell>
        <mxCell id="8xvinI1Koq5GKLLgfp_T-5" style="edgeStyle=orthogonalEdgeStyle;rounded=0;orthogonalLoop=1;jettySize=auto;html=1;entryX=0.5;entryY=0;entryDx=0;entryDy=0;" edge="1" parent="8xvinI1Koq5GKLLgfp_T-133" source="s33GEvEaxMYmXVZrxAXG-7" target="s33GEvEaxMYmXVZrxAXG-8">
          <mxGeometry relative="1" as="geometry" />
        </mxCell>
        <mxCell id="8xvinI1Koq5GKLLgfp_T-6" value="加入建筑运营成本" style="edgeLabel;html=1;align=center;verticalAlign=middle;resizable=0;points=[];container=0;" vertex="1" connectable="0" parent="8xvinI1Koq5GKLLgfp_T-5">
          <mxGeometry x="0.6317" relative="1" as="geometry">
            <mxPoint x="-50" y="-10" as="offset" />
          </mxGeometry>
        </mxCell>
        <mxCell id="s33GEvEaxMYmXVZrxAXG-7" value="4D BIM" style="rounded=1;whiteSpace=wrap;html=1;container=0;" parent="8xvinI1Koq5GKLLgfp_T-133" vertex="1">
          <mxGeometry x="29.374999999999996" y="159.4456762749446" width="176.25" height="44.1019955654102" as="geometry" />
        </mxCell>
        <mxCell id="8xvinI1Koq5GKLLgfp_T-7" style="edgeStyle=orthogonalEdgeStyle;rounded=0;orthogonalLoop=1;jettySize=auto;html=1;entryX=0.5;entryY=0;entryDx=0;entryDy=0;" edge="1" parent="8xvinI1Koq5GKLLgfp_T-133" source="s33GEvEaxMYmXVZrxAXG-8" target="s33GEvEaxMYmXVZrxAXG-9">
          <mxGeometry relative="1" as="geometry" />
        </mxCell>
        <mxCell id="8xvinI1Koq5GKLLgfp_T-8" value="建筑可持续性能耗" style="edgeLabel;html=1;align=center;verticalAlign=middle;resizable=0;points=[];container=0;" vertex="1" connectable="0" parent="8xvinI1Koq5GKLLgfp_T-7">
          <mxGeometry x="0.6159" relative="1" as="geometry">
            <mxPoint x="-50" y="-10" as="offset" />
          </mxGeometry>
        </mxCell>
        <mxCell id="s33GEvEaxMYmXVZrxAXG-8" value="5D BIM" style="rounded=1;whiteSpace=wrap;html=1;container=0;" parent="8xvinI1Koq5GKLLgfp_T-133" vertex="1">
          <mxGeometry x="29.374999999999996" y="232.94900221729495" width="176.25" height="44.1019955654102" as="geometry" />
        </mxCell>
        <mxCell id="8xvinI1Koq5GKLLgfp_T-9" style="edgeStyle=orthogonalEdgeStyle;rounded=0;orthogonalLoop=1;jettySize=auto;html=1;entryX=0.5;entryY=0;entryDx=0;entryDy=0;" edge="1" parent="8xvinI1Koq5GKLLgfp_T-133" source="s33GEvEaxMYmXVZrxAXG-9" target="s33GEvEaxMYmXVZrxAXG-10">
          <mxGeometry relative="1" as="geometry" />
        </mxCell>
        <mxCell id="8xvinI1Koq5GKLLgfp_T-10" value="建筑物生命周期" style="edgeLabel;html=1;align=center;verticalAlign=middle;resizable=0;points=[];container=0;" vertex="1" connectable="0" parent="8xvinI1Koq5GKLLgfp_T-9">
          <mxGeometry x="0.5841" relative="1" as="geometry">
            <mxPoint x="-50" y="-9" as="offset" />
          </mxGeometry>
        </mxCell>
        <mxCell id="s33GEvEaxMYmXVZrxAXG-9" value="6D BIM" style="rounded=1;whiteSpace=wrap;html=1;container=0;" parent="8xvinI1Koq5GKLLgfp_T-133" vertex="1">
          <mxGeometry x="29.374999999999996" y="306.4523281596453" width="176.25" height="44.1019955654102" as="geometry" />
        </mxCell>
        <mxCell id="8xvinI1Koq5GKLLgfp_T-11" style="edgeStyle=orthogonalEdgeStyle;rounded=0;orthogonalLoop=1;jettySize=auto;html=1;entryX=0.5;entryY=0;entryDx=0;entryDy=0;" edge="1" parent="8xvinI1Koq5GKLLgfp_T-133" source="s33GEvEaxMYmXVZrxAXG-10" target="s33GEvEaxMYmXVZrxAXG-11">
          <mxGeometry relative="1" as="geometry" />
        </mxCell>
        <mxCell id="8xvinI1Koq5GKLLgfp_T-12" value="建筑物安全管理" style="edgeLabel;html=1;align=center;verticalAlign=middle;resizable=0;points=[];container=0;" vertex="1" connectable="0" parent="8xvinI1Koq5GKLLgfp_T-11">
          <mxGeometry x="0.6476" y="1" relative="1" as="geometry">
            <mxPoint x="-51" y="-8" as="offset" />
          </mxGeometry>
        </mxCell>
        <mxCell id="s33GEvEaxMYmXVZrxAXG-10" value="7D BIM" style="rounded=1;whiteSpace=wrap;html=1;container=0;" parent="8xvinI1Koq5GKLLgfp_T-133" vertex="1">
          <mxGeometry x="29.374999999999996" y="379.9556541019955" width="176.25" height="44.1019955654102" as="geometry" />
        </mxCell>
        <mxCell id="s33GEvEaxMYmXVZrxAXG-11" value="8D BIM" style="rounded=1;whiteSpace=wrap;html=1;container=0;" parent="8xvinI1Koq5GKLLgfp_T-133" vertex="1">
          <mxGeometry x="29.374999999999996" y="453.458980044346" width="176.25" height="44.1019955654102" as="geometry" />
        </mxCell>
        <mxCell id="8xvinI1Koq5GKLLgfp_T-136" value="规划" style="group;labelPosition=center;verticalLabelPosition=bottom;align=center;verticalAlign=top;" vertex="1" connectable="0" parent="1">
          <mxGeometry x="1116" y="222.75" width="198.5" height="77.25" as="geometry" />
        </mxCell>
        <mxCell id="s33GEvEaxMYmXVZrxAXG-101" value="" style="outlineConnect=0;dashed=0;verticalLabelPosition=bottom;verticalAlign=top;align=center;html=1;shape=mxgraph.aws3.requester;fillColor=#ACACAC;gradientColor=none;" parent="8xvinI1Koq5GKLLgfp_T-136" vertex="1">
          <mxGeometry x="125" width="73.5" height="77.25" as="geometry" />
        </mxCell>
        <mxCell id="8xvinI1Koq5GKLLgfp_T-135" value="" style="sketch=0;pointerEvents=1;shadow=0;dashed=0;html=1;strokeColor=none;labelPosition=center;verticalLabelPosition=bottom;verticalAlign=top;align=center;fillColor=#515151;shape=mxgraph.mscae.system_center.admin_console" vertex="1" parent="8xvinI1Koq5GKLLgfp_T-136">
          <mxGeometry y="3.2936046511627906" width="78" height="70.66279069767441" as="geometry" />
        </mxCell>
        <mxCell id="8xvinI1Koq5GKLLgfp_T-137" value="搭建" style="group;labelPosition=center;verticalLabelPosition=bottom;align=center;verticalAlign=top;" vertex="1" connectable="0" parent="1">
          <mxGeometry x="1119" y="340" width="185.07" height="80" as="geometry" />
        </mxCell>
        <mxCell id="s33GEvEaxMYmXVZrxAXG-84" value="" style="outlineConnect=0;dashed=0;verticalLabelPosition=bottom;verticalAlign=top;align=center;html=1;shape=mxgraph.aws3.users;fillColor=#ACACAC;gradientColor=none;" parent="8xvinI1Koq5GKLLgfp_T-137" vertex="1">
          <mxGeometry width="70.99999999999994" height="80" as="geometry" />
        </mxCell>
        <mxCell id="s33GEvEaxMYmXVZrxAXG-102" value="" style="sketch=0;aspect=fixed;pointerEvents=1;shadow=0;dashed=0;html=1;strokeColor=none;labelPosition=center;verticalLabelPosition=bottom;verticalAlign=top;align=center;fillColor=#00188D;shape=mxgraph.mscae.enterprise.maintenance" parent="8xvinI1Koq5GKLLgfp_T-137" vertex="1">
          <mxGeometry x="126.42999999999995" width="58.63999999999995" height="75.17999999999994" as="geometry" />
        </mxCell>
        <mxCell id="8xvinI1Koq5GKLLgfp_T-138" value="监测" style="group;labelPosition=center;verticalLabelPosition=bottom;align=center;verticalAlign=top;" vertex="1" connectable="0" parent="1">
          <mxGeometry x="1110.5" y="459.5" width="209" height="100.5" as="geometry" />
        </mxCell>
        <mxCell id="s33GEvEaxMYmXVZrxAXG-98" value="" style="outlineConnect=0;dashed=0;verticalLabelPosition=bottom;verticalAlign=top;align=center;html=1;shape=mxgraph.aws3.global_secondary_index;fillColor=#2E73B8;gradientColor=none;" parent="8xvinI1Koq5GKLLgfp_T-138" vertex="1">
          <mxGeometry x="119" width="90" height="100" as="geometry" />
        </mxCell>
        <mxCell id="s33GEvEaxMYmXVZrxAXG-100" value="" style="outlineConnect=0;dashed=0;verticalLabelPosition=bottom;verticalAlign=top;align=center;html=1;shape=mxgraph.aws3.hardware_board;fillColor=#5294CF;gradientColor=none;" parent="8xvinI1Koq5GKLLgfp_T-138" vertex="1">
          <mxGeometry width="84" height="100.5" as="geometry" />
        </mxCell>
        <mxCell id="8xvinI1Koq5GKLLgfp_T-140" value="运营" style="group;labelPosition=center;verticalLabelPosition=bottom;align=center;verticalAlign=top;" vertex="1" connectable="0" parent="1">
          <mxGeometry x="1119" y="600" width="195.5" height="80" as="geometry" />
        </mxCell>
        <mxCell id="s33GEvEaxMYmXVZrxAXG-103" value="" style="image;aspect=fixed;perimeter=ellipsePerimeter;html=1;align=center;shadow=0;dashed=0;fontColor=#4277BB;labelBackgroundColor=default;fontSize=12;spacingTop=3;image=img/lib/ibm/analytics/streaming_computing.svg;" parent="8xvinI1Koq5GKLLgfp_T-140" vertex="1">
          <mxGeometry x="115.5" width="80" height="80" as="geometry" />
        </mxCell>
        <mxCell id="8xvinI1Koq5GKLLgfp_T-139" value="" style="image;sketch=0;aspect=fixed;html=1;points=[];align=center;fontSize=12;image=img/lib/mscae/Identity_Governance.svg;" vertex="1" parent="8xvinI1Koq5GKLLgfp_T-140">
          <mxGeometry width="80" height="80" as="geometry" />
        </mxCell>
      </root>
    </mxGraphModel>
  </diagram>
</mxfile>
